{
	"asset":{
		"generator":"Khronos glTF Blender I/O v3.5.30",
		"version":"2.0"
	},
	"extensionsUsed":[
		"KHR_materials_specular",
		"KHR_materials_ior"
	],
	"scene":0,
	"scenes":[
		{
			"name":"Scene",
			"nodes":[
				0,
				1,
				2,
				3,
				4,
				5,
				6,
				7
			]
		}
	],
	"nodes":[
		{
			"mesh":0,
			"name":"aksesoris",
			"rotation":[
				0.7071068286895752,
				0,
				0,
				0.7071068286895752
			]
		},
		{
			"mesh":1,
			"name":"baju",
			"rotation":[
				0.7071068286895752,
				0,
				0,
				0.7071068286895752
			]
		},
		{
			"mesh":2,
			"name":"kaki",
			"rotation":[
				0.7071068286895752,
				0,
				0,
				0.7071068286895752
			]
		},
		{
			"mesh":3,
			"name":"kepala",
			"rotation":[
				0.7071068286895752,
				0,
				0,
				0.7071068286895752
			]
		},
		{
			"mesh":4,
			"name":"rambut",
			"rotation":[
				0.7071068286895752,
				0,
				0,
				0.7071068286895752
			]
		},
		{
			"mesh":5,
			"name":"rok",
			"rotation":[
				0.7071068286895752,
				0,
				0,
				0.7071068286895752
			]
		},
		{
			"mesh":6,
			"name":"tanduk",
			"rotation":[
				0.7071068286895752,
				0,
				0,
				0.7071068286895752
			]
		},
		{
			"mesh":7,
			"name":"tangan",
			"rotation":[
				0.7071068286895752,
				0,
				0,
				0.7071068286895752
			]
		}
	],
	"materials":[
		{
			"doubleSided":true,
			"extensions":{
				"KHR_materials_specular":{
					"specularColorFactor":[
						0,
						0,
						0
					]
				},
				"KHR_materials_ior":{
					"ior":1.4500000476837158
				}
			},
			"name":"yamato",
			"pbrMetallicRoughness":{
				"baseColorTexture":{
					"index":0
				},
				"metallicFactor":0
			}
		}
	],
	"meshes":[
		{
			"name":"aksesoris",
			"primitives":[
				{
					"attributes":{
						"POSITION":0,
						"TEXCOORD_0":1,
						"NORMAL":2
					},
					"indices":3,
					"material":0
				}
			]
		},
		{
			"name":"baju",
			"primitives":[
				{
					"attributes":{
						"POSITION":4,
						"TEXCOORD_0":5,
						"NORMAL":6
					},
					"indices":7,
					"material":0
				}
			]
		},
		{
			"name":"kaki",
			"primitives":[
				{
					"attributes":{
						"POSITION":8,
						"TEXCOORD_0":9,
						"NORMAL":10
					},
					"indices":11,
					"material":0
				}
			]
		},
		{
			"name":"kepala",
			"primitives":[
				{
					"attributes":{
						"POSITION":12,
						"TEXCOORD_0":13,
						"NORMAL":14
					},
					"indices":15,
					"material":0
				}
			]
		},
		{
			"name":"rambut",
			"primitives":[
				{
					"attributes":{
						"POSITION":16,
						"TEXCOORD_0":17,
						"NORMAL":18
					},
					"indices":19,
					"material":0
				}
			]
		},
		{
			"name":"rok",
			"primitives":[
				{
					"attributes":{
						"POSITION":20,
						"TEXCOORD_0":21,
						"NORMAL":22
					},
					"indices":23,
					"material":0
				}
			]
		},
		{
			"name":"tanduk",
			"primitives":[
				{
					"attributes":{
						"POSITION":24,
						"TEXCOORD_0":25,
						"NORMAL":26
					},
					"indices":27,
					"material":0
				}
			]
		},
		{
			"name":"tangan",
			"primitives":[
				{
					"attributes":{
						"POSITION":28,
						"TEXCOORD_0":29,
						"NORMAL":30
					},
					"indices":31,
					"material":0
				}
			]
		}
	],
	"textures":[
		{
			"sampler":0,
			"source":0
		}
	],
	"images":[
		{
			"bufferView":4,
			"mimeType":"image/png",
			"name":"yamato"
		}
	],
	"accessors":[
		{
			"bufferView":0,
			"componentType":5126,
			"count":3893,
			"max":[
				35.864601135253906,
				12.183799743652344,
				-1.239300012588501
			],
			"min":[
				-35.849300384521484,
				-26.37019920349121,
				-132.7769012451172
			],
			"type":"VEC3"
		},
		{
			"bufferView":1,
			"componentType":5126,
			"count":3893,
			"type":"VEC2"
		},
		{
			"bufferView":2,
			"componentType":5126,
			"count":3893,
			"type":"VEC3"
		},
		{
			"bufferView":3,
			"componentType":5123,
			"count":5616,
			"type":"SCALAR"
		},
		{
			"bufferView":5,
			"componentType":5126,
			"count":1511,
			"max":[
				8.59160041809082,
				11.408300399780273,
				-91.35150146484375
			],
			"min":[
				-8.622900009155273,
				-6.449399948120117,
				-117.59369659423828
			],
			"type":"VEC3"
		},
		{
			"bufferView":6,
			"componentType":5126,
			"count":1511,
			"type":"VEC2"
		},
		{
			"bufferView":7,
			"componentType":5126,
			"count":1511,
			"type":"VEC3"
		},
		{
			"bufferView":8,
			"componentType":5123,
			"count":2139,
			"type":"SCALAR"
		},
		{
			"bufferView":9,
			"componentType":5126,
			"count":628,
			"max":[
				16.8435001373291,
				10.945799827575684,
				-5.1579999923706055
			],
			"min":[
				-16.16659927368164,
				-6.210400104522705,
				-70.49759674072266
			],
			"type":"VEC3"
		},
		{
			"bufferView":10,
			"componentType":5126,
			"count":628,
			"type":"VEC2"
		},
		{
			"bufferView":11,
			"componentType":5126,
			"count":628,
			"type":"VEC3"
		},
		{
			"bufferView":12,
			"componentType":5123,
			"count":918,
			"type":"SCALAR"
		},
		{
			"bufferView":13,
			"componentType":5126,
			"count":1155,
			"max":[
				6.196599960327148,
				7.047699928283691,
				-110.36949920654297
			],
			"min":[
				-6.245100021362305,
				-4.020899772644043,
				-129.73069763183594
			],
			"type":"VEC3"
		},
		{
			"bufferView":14,
			"componentType":5126,
			"count":1155,
			"type":"VEC2"
		},
		{
			"bufferView":15,
			"componentType":5126,
			"count":1155,
			"type":"VEC3"
		},
		{
			"bufferView":16,
			"componentType":5123,
			"count":1605,
			"type":"SCALAR"
		},
		{
			"bufferView":17,
			"componentType":5126,
			"count":3487,
			"max":[
				14.523699760437012,
				9.067099571228027,
				-87.39559936523438
			],
			"min":[
				-13.607399940490723,
				-26.53019905090332,
				-136.3509979248047
			],
			"type":"VEC3"
		},
		{
			"bufferView":18,
			"componentType":5126,
			"count":3487,
			"type":"VEC2"
		},
		{
			"bufferView":19,
			"componentType":5126,
			"count":3487,
			"type":"VEC3"
		},
		{
			"bufferView":20,
			"componentType":5123,
			"count":4935,
			"type":"SCALAR"
		},
		{
			"bufferView":21,
			"componentType":5126,
			"count":2548,
			"max":[
				26.53689956665039,
				15.418600082397461,
				-20.491899490356445
			],
			"min":[
				-26.45009994506836,
				-18.108999252319336,
				-94.54180145263672
			],
			"type":"VEC3"
		},
		{
			"bufferView":22,
			"componentType":5126,
			"count":2548,
			"type":"VEC2"
		},
		{
			"bufferView":23,
			"componentType":5126,
			"count":2548,
			"type":"VEC3"
		},
		{
			"bufferView":24,
			"componentType":5123,
			"count":3726,
			"type":"SCALAR"
		},
		{
			"bufferView":25,
			"componentType":5126,
			"count":462,
			"max":[
				7.218100070953369,
				4.967199802398682,
				-122.78790283203125
			],
			"min":[
				-7.273799896240234,
				0.3127000033855438,
				-138.9571990966797
			],
			"type":"VEC3"
		},
		{
			"bufferView":26,
			"componentType":5126,
			"count":462,
			"type":"VEC2"
		},
		{
			"bufferView":27,
			"componentType":5126,
			"count":462,
			"type":"VEC3"
		},
		{
			"bufferView":28,
			"componentType":5123,
			"count":630,
			"type":"SCALAR"
		},
		{
			"bufferView":29,
			"componentType":5126,
			"count":1050,
			"max":[
				40.87879943847656,
				5.955100059509277,
				-77.30619812011719
			],
			"min":[
				-40.591800689697266,
				-4.422399997711182,
				-113.88510131835938
			],
			"type":"VEC3"
		},
		{
			"bufferView":30,
			"componentType":5126,
			"count":1050,
			"type":"VEC2"
		},
		{
			"bufferView":31,
			"componentType":5126,
			"count":1050,
			"type":"VEC3"
		},
		{
			"bufferView":32,
			"componentType":5123,
			"count":1524,
			"type":"SCALAR"
		}
	],
	"bufferViews":[
		{
			"buffer":0,
			"byteLength":46716,
			"byteOffset":0,
			"target":34962
		},
		{
			"buffer":0,
			"byteLength":31144,
			"byteOffset":46716,
			"target":34962
		},
		{
			"buffer":0,
			"byteLength":46716,
			"byteOffset":77860,
			"target":34962
		},
		{
			"buffer":0,
			"byteLength":11232,
			"byteOffset":124576,
			"target":34963
		},
		{
			"buffer":0,
			"byteLength":891531,
			"byteOffset":135808
		},
		{
			"buffer":0,
			"byteLength":18132,
			"byteOffset":1027340,
			"target":34962
		},
		{
			"buffer":0,
			"byteLength":12088,
			"byteOffset":1045472,
			"target":34962
		},
		{
			"buffer":0,
			"byteLength":18132,
			"byteOffset":1057560,
			"target":34962
		},
		{
			"buffer":0,
			"byteLength":4278,
			"byteOffset":1075692,
			"target":34963
		},
		{
			"buffer":0,
			"byteLength":7536,
			"byteOffset":1079972,
			"target":34962
		},
		{
			"buffer":0,
			"byteLength":5024,
			"byteOffset":1087508,
			"target":34962
		},
		{
			"buffer":0,
			"byteLength":7536,
			"byteOffset":1092532,
			"target":34962
		},
		{
			"buffer":0,
			"byteLength":1836,
			"byteOffset":1100068,
			"target":34963
		},
		{
			"buffer":0,
			"byteLength":13860,
			"byteOffset":1101904,
			"target":34962
		},
		{
			"buffer":0,
			"byteLength":9240,
			"byteOffset":1115764,
			"target":34962
		},
		{
			"buffer":0,
			"byteLength":13860,
			"byteOffset":1125004,
			"target":34962
		},
		{
			"buffer":0,
			"byteLength":3210,
			"byteOffset":1138864,
			"target":34963
		},
		{
			"buffer":0,
			"byteLength":41844,
			"byteOffset":1142076,
			"target":34962
		},
		{
			"buffer":0,
			"byteLength":27896,
			"byteOffset":1183920,
			"target":34962
		},
		{
			"buffer":0,
			"byteLength":41844,
			"byteOffset":1211816,
			"target":34962
		},
		{
			"buffer":0,
			"byteLength":9870,
			"byteOffset":1253660,
			"target":34963
		},
		{
			"buffer":0,
			"byteLength":30576,
			"byteOffset":1263532,
			"target":34962
		},
		{
			"buffer":0,
			"byteLength":20384,
			"byteOffset":1294108,
			"target":34962
		},
		{
			"buffer":0,
			"byteLength":30576,
			"byteOffset":1314492,
			"target":34962
		},
		{
			"buffer":0,
			"byteLength":7452,
			"byteOffset":1345068,
			"target":34963
		},
		{
			"buffer":0,
			"byteLength":5544,
			"byteOffset":1352520,
			"target":34962
		},
		{
			"buffer":0,
			"byteLength":3696,
			"byteOffset":1358064,
			"target":34962
		},
		{
			"buffer":0,
			"byteLength":5544,
			"byteOffset":1361760,
			"target":34962
		},
		{
			"buffer":0,
			"byteLength":1260,
			"byteOffset":1367304,
			"target":34963
		},
		{
			"buffer":0,
			"byteLength":12600,
			"byteOffset":1368564,
			"target":34962
		},
		{
			"buffer":0,
			"byteLength":8400,
			"byteOffset":1381164,
			"target":34962
		},
		{
			"buffer":0,
			"byteLength":12600,
			"byteOffset":1389564,
			"target":34962
		},
		{
			"buffer":0,
			"byteLength":3048,
			"byteOffset":1402164,
			"target":34963
		}
	],
	"samplers":[
		{
			"magFilter":9729,
			"minFilter":9987
		}
	],
	"buffers":[
		{
			"byteLength":1405212,
			"uri":"data:application/octet-stream;base64,"
		}
	]
}
